<svg width="266" height="151" viewBox="0 0 266 151" fill="none" xmlns="http://www.w3.org/2000/svg">
<path d="M120.792 70.592C120.813 70.8053 120.792 71.008 120.728 71.2C120.685 71.328 120.621 71.4347 120.536 71.52C120.472 71.6053 120.387 71.6907 120.28 71.776C120.088 71.904 119.853 72.0213 119.576 72.128C119.405 72.1707 119.235 72.2027 119.064 72.224C118.915 72.2667 118.755 72.2667 118.584 72.224C118.243 72.2027 117.944 72.0747 117.688 71.84C117.325 71.5413 117.027 71.2107 116.792 70.848C116.685 70.6773 116.568 70.4853 116.44 70.272C116.312 70.0587 116.195 69.8347 116.088 69.6L112.536 62.848C112.365 62.848 112.195 62.8587 112.024 62.88C111.853 62.88 111.683 62.8907 111.512 62.912C111.064 62.9547 110.637 62.9653 110.232 62.944C109.848 62.9227 109.443 62.9227 109.016 62.944H108.408V68.736C108.408 68.9067 108.397 69.0667 108.376 69.216C108.376 69.3653 108.376 69.5253 108.376 69.696C108.376 69.8027 108.365 69.9413 108.344 70.112C108.344 70.2827 108.333 70.4427 108.312 70.592C108.269 70.8267 108.173 71.072 108.024 71.328C107.875 71.5627 107.672 71.7653 107.416 71.936C106.968 72.2133 106.424 72.288 105.784 72.16C105.507 72.096 105.24 71.9893 104.984 71.84C104.899 71.776 104.824 71.7013 104.76 71.616C104.696 71.5093 104.643 71.4027 104.6 71.296C104.557 71.1893 104.515 71.0827 104.472 70.976C104.451 70.848 104.419 70.7307 104.376 70.624C104.312 70.4107 104.28 70.208 104.28 70.016V51.84C104.28 51.712 104.28 51.584 104.28 51.456C104.301 51.3067 104.323 51.1787 104.344 51.072C104.365 50.8373 104.44 50.6027 104.568 50.368C104.632 50.112 104.739 49.9307 104.888 49.824C105.016 49.696 105.208 49.5893 105.464 49.504C105.741 49.3973 106.136 49.3547 106.648 49.376C107.608 49.3973 108.557 49.408 109.496 49.408C110.435 49.408 111.373 49.4293 112.312 49.472C112.931 49.5147 113.581 49.5893 114.264 49.696C114.968 49.7813 115.619 49.9413 116.216 50.176C116.6 50.3253 116.952 50.4747 117.272 50.624C117.677 50.8587 117.997 51.0827 118.232 51.296C118.979 51.9787 119.544 52.8 119.928 53.76C120.312 54.72 120.504 55.6907 120.504 56.672C120.504 57.824 120.227 58.88 119.672 59.84C119.139 60.8 118.275 61.5147 117.08 61.984C117.037 62.0267 116.973 62.0587 116.888 62.08C116.824 62.08 116.771 62.0907 116.728 62.112L119.672 68.032L119.96 68.544C120.003 68.6293 120.056 68.7253 120.12 68.832C120.184 68.9387 120.237 69.0453 120.28 69.152C120.344 69.2587 120.397 69.376 120.44 69.504C120.504 69.632 120.568 69.7493 120.632 69.856C120.696 70.1547 120.749 70.4 120.792 70.592ZM112.792 59.2C113.176 59.2 113.539 59.136 113.88 59.008C114.243 58.8587 114.563 58.6667 114.84 58.432C115.139 58.1973 115.384 57.9307 115.576 57.632C115.768 57.312 115.875 56.9707 115.896 56.608C115.981 55.5413 115.704 54.752 115.064 54.24C114.424 53.7067 113.581 53.4187 112.536 53.376C111.917 53.3333 111.235 53.312 110.488 53.312C109.763 53.312 109.069 53.312 108.408 53.312C108.429 54.1867 108.429 55.0827 108.408 56C108.408 56.896 108.408 57.9627 108.408 59.2H112.792ZM127.758 53.184L127.694 58.208H128.974C129.848 58.1867 130.627 58.176 131.31 58.176C131.992 58.176 132.75 58.1867 133.582 58.208H133.742C133.998 58.208 134.243 58.2187 134.478 58.24C134.734 58.24 134.979 58.24 135.214 58.24C135.47 58.2613 135.715 58.304 135.95 58.368C136.184 58.4107 136.419 58.464 136.654 58.528C137.016 58.656 137.315 58.848 137.55 59.104C137.763 59.3813 137.87 59.6907 137.87 60.032C137.87 60.1387 137.87 60.2667 137.87 60.416C137.87 60.544 137.848 60.6613 137.806 60.768C137.763 61.0027 137.624 61.216 137.39 61.408C137.283 61.5573 137.08 61.664 136.782 61.728C136.504 61.8133 136.227 61.8667 135.95 61.888C135.651 61.952 135.352 61.984 135.054 61.984H133.55L127.63 62.016L127.566 68.288L133.934 68.352H135.438C135.608 68.352 135.768 68.352 135.918 68.352C136.067 68.352 136.206 68.3627 136.334 68.384C136.504 68.4267 136.654 68.4587 136.782 68.48C136.931 68.48 137.07 68.5013 137.198 68.544C137.454 68.6293 137.667 68.7467 137.838 68.896C138.051 69.1093 138.19 69.3333 138.254 69.568C138.275 69.6747 138.286 69.792 138.286 69.92C138.307 70.0267 138.307 70.144 138.286 70.272C138.286 70.6133 138.179 70.9227 137.966 71.2C137.71 71.4987 137.411 71.6907 137.07 71.776C136.622 71.968 136.131 72.064 135.598 72.064C135.363 72.0853 135.118 72.096 134.862 72.096C134.606 72.096 134.36 72.1067 134.126 72.128H133.934C132.27 72.1707 130.542 72.1707 128.75 72.128C128.323 72.128 127.982 72.1173 127.726 72.096C127.47 72.096 127.235 72.096 127.022 72.096C126.83 72.096 126.627 72.096 126.414 72.096C126.2 72.096 125.923 72.096 125.582 72.096C125.091 72.1387 124.686 72.0533 124.366 71.84C124.131 71.6907 123.95 71.488 123.822 71.232C123.758 71.168 123.726 71.104 123.726 71.04C123.704 70.9973 123.683 70.9653 123.662 70.944C123.64 70.9227 123.619 70.8907 123.598 70.848C123.555 70.7413 123.523 70.6347 123.502 70.528C123.48 70.4 123.47 70.2827 123.47 70.176C123.448 70.0693 123.427 69.9627 123.406 69.856C123.406 69.7493 123.395 69.6427 123.374 69.536V69.024C123.374 68.9387 123.374 68.8533 123.374 68.768C123.395 68.6827 123.406 68.5973 123.406 68.512V66.016L123.47 61.408V57.152C123.47 56.384 123.47 55.7013 123.47 55.104C123.491 54.5067 123.512 53.856 123.534 53.152V52.992C123.555 52.7573 123.566 52.544 123.566 52.352C123.587 52.1387 123.598 51.9253 123.598 51.712C123.619 51.2853 123.736 50.8693 123.95 50.464C124.035 50.2933 124.12 50.144 124.206 50.016C124.312 49.888 124.451 49.7813 124.622 49.696C124.942 49.504 125.272 49.408 125.614 49.408C125.784 49.408 125.912 49.4187 125.998 49.44V49.408C126.382 49.408 126.691 49.408 126.926 49.408C127.16 49.408 127.384 49.408 127.598 49.408C127.832 49.408 128.078 49.408 128.334 49.408C128.59 49.3867 128.942 49.376 129.39 49.376C130.243 49.3547 131.054 49.344 131.822 49.344C132.59 49.344 133.379 49.3547 134.19 49.376H134.318C134.552 49.3973 134.798 49.408 135.054 49.408C135.31 49.408 135.555 49.4187 135.79 49.44C136.024 49.44 136.259 49.472 136.494 49.536C136.728 49.5787 136.963 49.6427 137.198 49.728C137.56 49.8347 137.859 50.016 138.094 50.272C138.286 50.5707 138.382 50.8693 138.382 51.168C138.382 51.296 138.382 51.424 138.382 51.552C138.382 51.6587 138.36 51.7653 138.318 51.872C138.296 52.0853 138.168 52.3093 137.934 52.544C137.848 52.5867 137.752 52.64 137.646 52.704C137.56 52.768 137.454 52.8213 137.326 52.864C137.198 52.9067 137.059 52.9387 136.91 52.96C136.782 52.96 136.654 52.9707 136.526 52.992C136.355 53.0347 136.195 53.056 136.046 53.056C135.918 53.056 135.768 53.056 135.598 53.056H134.158L127.758 53.088V53.184ZM157.512 62.688C157.619 62.9867 157.694 63.328 157.736 63.712C157.8 64.0747 157.832 64.448 157.832 64.832C157.832 65.216 157.8 65.6 157.736 65.984C157.694 66.3467 157.63 66.6667 157.544 66.944C157.203 68.1387 156.52 69.1413 155.496 69.952C154.472 70.7413 153.299 71.3173 151.976 71.68C150.675 72.0427 149.32 72.1707 147.912 72.064C146.526 71.9573 145.288 71.6053 144.2 71.008C143.518 70.624 142.931 70.1547 142.44 69.6C141.95 69.0453 141.534 68.4267 141.192 67.744C141.064 67.5093 140.979 67.2427 140.936 66.944C140.915 66.624 140.947 66.3253 141.032 66.048C141.118 65.7493 141.256 65.4933 141.448 65.28C141.64 65.0453 141.907 64.8853 142.248 64.8C142.462 64.7573 142.696 64.736 142.952 64.736C143.23 64.736 143.496 64.7787 143.752 64.864C144.008 64.928 144.243 65.0453 144.456 65.216C144.67 65.3653 144.84 65.5787 144.968 65.856C145.203 66.304 145.534 66.72 145.96 67.104C146.408 67.4667 146.878 67.7653 147.368 68C148.072 68.2347 148.776 68.3307 149.48 68.288C150.206 68.2453 150.856 68.0853 151.432 67.808C152.03 67.5307 152.51 67.1573 152.872 66.688C153.235 66.1973 153.416 65.6427 153.416 65.024C153.416 64.512 153.342 64.096 153.192 63.776C153.043 63.4347 152.83 63.1573 152.552 62.944C152.296 62.7093 151.976 62.5173 151.592 62.368C151.23 62.2187 150.824 62.0907 150.376 61.984C149.864 61.8773 149.342 61.8027 148.808 61.76C148.296 61.7173 147.774 61.664 147.24 61.6C146.707 61.536 146.184 61.4507 145.672 61.344C145.16 61.2373 144.659 61.0773 144.168 60.864C143.187 60.4587 142.44 59.84 141.928 59.008C141.416 58.176 141.107 57.28 141 56.32C140.915 55.36 141.032 54.4107 141.352 53.472C141.672 52.512 142.184 51.6907 142.888 51.008C143.571 50.3893 144.382 49.952 145.32 49.696C146.28 49.4187 147.336 49.2587 148.488 49.216C149.128 49.1947 149.768 49.216 150.408 49.28C151.07 49.344 151.699 49.4507 152.296 49.6C152.915 49.7493 153.48 49.9413 153.992 50.176C154.526 50.4107 154.984 50.688 155.368 51.008C155.646 51.2213 155.923 51.5093 156.2 51.872C156.478 52.2133 156.691 52.5867 156.84 52.992C156.99 53.376 157.032 53.7493 156.968 54.112C156.926 54.4747 156.702 54.784 156.296 55.04C155.955 55.2533 155.624 55.3493 155.304 55.328C155.006 55.2853 154.718 55.1893 154.44 55.04C154.163 54.8693 153.896 54.6773 153.64 54.464C153.384 54.2507 153.15 54.0587 152.936 53.888C152.36 53.4613 151.646 53.1733 150.792 53.024C149.939 52.8747 149.139 52.8427 148.392 52.928C147.923 52.992 147.486 53.0987 147.08 53.248C146.675 53.3973 146.323 53.6 146.024 53.856C145.747 54.112 145.523 54.432 145.352 54.816C145.203 55.1787 145.15 55.5947 145.192 56.064C145.214 56.4053 145.31 56.6933 145.48 56.928C145.672 57.1627 145.896 57.3547 146.152 57.504C146.43 57.6533 146.728 57.7707 147.048 57.856C147.368 57.9413 147.688 58.0053 148.008 58.048C148.968 58.176 149.928 58.272 150.888 58.336C151.848 58.4 152.787 58.6133 153.704 58.976C154.643 59.3387 155.443 59.8293 156.104 60.448C156.766 61.0667 157.235 61.8133 157.512 62.688ZM177.877 51.104C178.005 52.128 178.08 53.3227 178.101 54.688C178.122 56.032 178.101 57.3973 178.037 58.784C177.994 60.1493 177.898 61.4507 177.749 62.688C177.6 63.904 177.418 64.8853 177.205 65.632C177.056 66.08 176.874 66.5493 176.661 67.04C176.469 67.5093 176.256 67.936 176.021 68.32C175.68 68.896 175.264 69.408 174.773 69.856C174.282 70.2827 173.738 70.656 173.141 70.976C172.565 71.2747 171.946 71.5093 171.285 71.68C170.645 71.8507 170.005 71.9467 169.365 71.968C168.234 72.0107 167.157 71.8507 166.133 71.488C165.13 71.104 164.202 70.5067 163.349 69.696C162.709 69.0773 162.197 68.416 161.813 67.712C161.429 67.008 161.13 66.272 160.917 65.504C160.704 64.7147 160.565 63.904 160.501 63.072C160.458 62.24 160.437 61.3867 160.437 60.512C160.437 60.1067 160.426 59.6053 160.405 59.008C160.405 58.3893 160.405 57.76 160.405 57.12C160.405 56.4587 160.405 55.8187 160.405 55.2C160.405 54.5813 160.416 54.0587 160.437 53.632C160.437 53.3547 160.437 53.056 160.437 52.736C160.437 52.3947 160.448 52.064 160.469 51.744C160.512 51.4027 160.576 51.0827 160.661 50.784C160.746 50.464 160.874 50.176 161.045 49.92C161.237 49.6427 161.504 49.44 161.845 49.312C162.186 49.184 162.538 49.12 162.901 49.12C163.285 49.12 163.648 49.1947 163.989 49.344C164.33 49.4933 164.608 49.7067 164.821 49.984C164.928 50.1547 165.002 50.3253 165.045 50.496C165.088 50.6667 165.12 50.8587 165.141 51.072C165.184 51.776 165.205 52.576 165.205 53.472C165.226 54.368 165.226 55.2427 165.205 56.096C165.205 56.928 165.194 57.696 165.173 58.4C165.152 59.104 165.141 59.6267 165.141 59.968C165.141 61.248 165.205 62.4107 165.333 63.456C165.461 64.48 165.76 65.3333 166.229 66.016C166.656 66.6347 167.157 67.0293 167.733 67.2C168.309 67.3707 168.885 67.424 169.461 67.36C169.994 67.296 170.528 67.104 171.061 66.784C171.616 66.4427 172.053 65.952 172.373 65.312C172.501 65.0773 172.608 64.8107 172.693 64.512C172.778 64.2133 172.842 63.936 172.885 63.68C172.97 62.8693 173.045 61.9307 173.109 60.864C173.173 59.776 173.226 58.6667 173.269 57.536C173.312 56.4053 173.333 55.296 173.333 54.208C173.333 53.12 173.322 52.1387 173.301 51.264C173.344 50.88 173.461 50.528 173.653 50.208C173.824 49.9307 174.069 49.6853 174.389 49.472C174.709 49.2587 175.146 49.152 175.701 49.152C176.149 49.1733 176.512 49.2907 176.789 49.504C177.066 49.696 177.29 49.9093 177.461 50.144C177.653 50.4213 177.792 50.7413 177.877 51.104ZM200.174 69.696C200.153 69.952 200.121 70.2187 200.078 70.496C200.036 70.7733 199.961 71.0293 199.854 71.264C199.748 71.52 199.609 71.712 199.438 71.84C199.204 72.0533 198.926 72.1707 198.606 72.192C198.308 72.2987 198.02 72.3307 197.742 72.288C197.465 72.2453 197.209 72.1707 196.974 72.064C196.676 71.872 196.452 71.648 196.302 71.392C196.174 71.1147 196.078 70.8267 196.014 70.528C195.95 70.2293 195.918 69.92 195.918 69.6C195.918 69.28 195.918 68.9813 195.918 68.704V66.208L195.886 61.312C195.886 60.9707 195.886 60.704 195.886 60.512C195.886 60.32 195.886 60.1493 195.886 60C195.886 59.8293 195.876 59.648 195.854 59.456C195.854 59.2427 195.854 58.944 195.854 58.56C195.854 58.496 195.854 58.3893 195.854 58.24C195.876 58.0693 195.865 57.632 195.822 56.928C194.99 58.3147 194.297 59.4347 193.742 60.288C193.209 61.12 192.75 61.7707 192.366 62.24C192.004 62.688 191.684 62.9973 191.406 63.168C191.129 63.3173 190.841 63.4027 190.542 63.424C190.372 63.4453 190.201 63.4133 190.03 63.328C189.86 63.2427 189.689 63.136 189.518 63.008C189.369 62.88 189.22 62.752 189.07 62.624C188.942 62.4747 188.836 62.336 188.75 62.208C188.238 61.568 187.662 60.8 187.022 59.904C186.382 59.008 185.721 57.92 185.038 56.64C185.038 56.6613 185.028 57.0133 185.006 57.696C185.006 58.3787 185.006 59.232 185.006 60.256C185.006 61.2587 184.996 62.3467 184.974 63.52C184.974 64.672 184.964 65.7493 184.942 66.752C184.942 67.7547 184.932 68.5973 184.91 69.28C184.889 69.9413 184.868 70.272 184.846 70.272C184.846 70.6347 184.761 70.976 184.59 71.296C184.42 71.5947 184.185 71.84 183.886 72.032C183.609 72.224 183.278 72.3307 182.894 72.352C182.51 72.3733 182.094 72.2667 181.646 72.032C181.369 71.8613 181.156 71.616 181.006 71.296C180.878 70.976 180.793 70.6773 180.75 70.4C180.729 70.1013 180.708 69.8133 180.686 69.536C180.686 69.2587 180.686 68.9707 180.686 68.672L180.718 66.176L180.75 61.248V56.96C180.75 55.104 180.814 53.28 180.942 51.488C180.942 51.2533 180.964 51.04 181.006 50.848C181.07 50.6347 181.145 50.432 181.23 50.24C181.401 49.8987 181.625 49.6427 181.902 49.472C182.222 49.28 182.564 49.184 182.926 49.184C183.076 49.184 183.214 49.1947 183.342 49.216C183.492 49.216 183.63 49.2267 183.758 49.248C184.185 49.3333 184.548 49.5893 184.846 50.016C185.166 50.4213 185.465 50.7733 185.742 51.072C185.913 51.264 186.094 51.4987 186.286 51.776C186.478 52.0533 186.67 52.3413 186.862 52.64C187.054 52.9387 187.236 53.2267 187.406 53.504C187.577 53.7813 187.726 54.0267 187.854 54.24C188.409 55.136 188.9 55.9573 189.326 56.704C189.774 57.4507 190.19 58.0907 190.574 58.624C190.638 58.56 190.713 58.4747 190.798 58.368C190.884 58.24 190.969 58.112 191.054 57.984C191.161 57.8347 191.246 57.696 191.31 57.568C191.396 57.44 191.46 57.3333 191.502 57.248C191.716 56.9067 191.929 56.576 192.142 56.256C192.356 55.9147 192.58 55.5627 192.814 55.2C193.07 54.816 193.326 54.4 193.582 53.952C193.86 53.504 194.18 52.992 194.542 52.416C194.692 52.16 194.884 51.8507 195.118 51.488C195.353 51.1253 195.62 50.7733 195.918 50.432C196.217 50.0907 196.526 49.8027 196.846 49.568C197.188 49.312 197.529 49.184 197.87 49.184C198.041 49.184 198.19 49.1947 198.318 49.216C198.446 49.216 198.574 49.2267 198.702 49.248C198.958 49.2693 199.204 49.3867 199.438 49.6C199.609 49.7707 199.737 49.952 199.822 50.144C199.908 50.4213 199.961 50.656 199.982 50.848C200.004 50.9973 200.014 51.136 200.014 51.264C200.036 51.392 200.046 51.52 200.046 51.648C200.046 52.8427 200.057 54.0267 200.078 55.2C200.1 56.3733 200.11 57.5573 200.11 58.752C200.11 60.2027 200.11 61.696 200.11 63.232C200.132 64.768 200.142 66.2613 200.142 67.712C200.142 68.0107 200.153 68.3307 200.174 68.672C200.196 69.0133 200.196 69.3547 200.174 69.696ZM207.164 53.184L207.1 58.208H208.38C209.255 58.1867 210.033 58.176 210.716 58.176C211.399 58.176 212.156 58.1867 212.988 58.208H213.148C213.404 58.208 213.649 58.2187 213.884 58.24C214.14 58.24 214.385 58.24 214.62 58.24C214.876 58.2613 215.121 58.304 215.356 58.368C215.591 58.4107 215.825 58.464 216.06 58.528C216.423 58.656 216.721 58.848 216.956 59.104C217.169 59.3813 217.276 59.6907 217.276 60.032C217.276 60.1387 217.276 60.2667 217.276 60.416C217.276 60.544 217.255 60.6613 217.212 60.768C217.169 61.0027 217.031 61.216 216.796 61.408C216.689 61.5573 216.487 61.664 216.188 61.728C215.911 61.8133 215.633 61.8667 215.356 61.888C215.057 61.952 214.759 61.984 214.46 61.984H212.956L207.036 62.016L206.972 68.288L213.34 68.352H214.844C215.015 68.352 215.175 68.352 215.324 68.352C215.473 68.352 215.612 68.3627 215.74 68.384C215.911 68.4267 216.06 68.4587 216.188 68.48C216.337 68.48 216.476 68.5013 216.604 68.544C216.86 68.6293 217.073 68.7467 217.244 68.896C217.457 69.1093 217.596 69.3333 217.66 69.568C217.681 69.6747 217.692 69.792 217.692 69.92C217.713 70.0267 217.713 70.144 217.692 70.272C217.692 70.6133 217.585 70.9227 217.372 71.2C217.116 71.4987 216.817 71.6907 216.476 71.776C216.028 71.968 215.537 72.064 215.004 72.064C214.769 72.0853 214.524 72.096 214.268 72.096C214.012 72.096 213.767 72.1067 213.532 72.128H213.34C211.676 72.1707 209.948 72.1707 208.156 72.128C207.729 72.128 207.388 72.1173 207.132 72.096C206.876 72.096 206.641 72.096 206.428 72.096C206.236 72.096 206.033 72.096 205.82 72.096C205.607 72.096 205.329 72.096 204.988 72.096C204.497 72.1387 204.092 72.0533 203.772 71.84C203.537 71.6907 203.356 71.488 203.228 71.232C203.164 71.168 203.132 71.104 203.132 71.04C203.111 70.9973 203.089 70.9653 203.068 70.944C203.047 70.9227 203.025 70.8907 203.004 70.848C202.961 70.7413 202.929 70.6347 202.908 70.528C202.887 70.4 202.876 70.2827 202.876 70.176C202.855 70.0693 202.833 69.9627 202.812 69.856C202.812 69.7493 202.801 69.6427 202.78 69.536V69.024C202.78 68.9387 202.78 68.8533 202.78 68.768C202.801 68.6827 202.812 68.5973 202.812 68.512V66.016L202.876 61.408V57.152C202.876 56.384 202.876 55.7013 202.876 55.104C202.897 54.5067 202.919 53.856 202.94 53.152V52.992C202.961 52.7573 202.972 52.544 202.972 52.352C202.993 52.1387 203.004 51.9253 203.004 51.712C203.025 51.2853 203.143 50.8693 203.356 50.464C203.441 50.2933 203.527 50.144 203.612 50.016C203.719 49.888 203.857 49.7813 204.028 49.696C204.348 49.504 204.679 49.408 205.02 49.408C205.191 49.408 205.319 49.4187 205.404 49.44V49.408C205.788 49.408 206.097 49.408 206.332 49.408C206.567 49.408 206.791 49.408 207.004 49.408C207.239 49.408 207.484 49.408 207.74 49.408C207.996 49.3867 208.348 49.376 208.796 49.376C209.649 49.3547 210.46 49.344 211.228 49.344C211.996 49.344 212.785 49.3547 213.596 49.376H213.724C213.959 49.3973 214.204 49.408 214.46 49.408C214.716 49.408 214.961 49.4187 215.196 49.44C215.431 49.44 215.665 49.472 215.9 49.536C216.135 49.5787 216.369 49.6427 216.604 49.728C216.967 49.8347 217.265 50.016 217.5 50.272C217.692 50.5707 217.788 50.8693 217.788 51.168C217.788 51.296 217.788 51.424 217.788 51.552C217.788 51.6587 217.767 51.7653 217.724 51.872C217.703 52.0853 217.575 52.3093 217.34 52.544C217.255 52.5867 217.159 52.64 217.052 52.704C216.967 52.768 216.86 52.8213 216.732 52.864C216.604 52.9067 216.465 52.9387 216.316 52.96C216.188 52.96 216.06 52.9707 215.932 52.992C215.761 53.0347 215.601 53.056 215.452 53.056C215.324 53.056 215.175 53.056 215.004 53.056H213.564L207.164 53.088V53.184ZM116.888 90.192C117.507 90.5973 118.029 91.0773 118.456 91.632C118.904 92.1653 119.256 92.8267 119.512 93.616C119.789 94.4907 119.928 95.376 119.928 96.272C119.949 97.1467 119.789 97.968 119.448 98.736C119.128 99.4827 118.605 100.144 117.88 100.72C117.176 101.275 116.248 101.669 115.096 101.904C114.477 102.053 113.752 102.171 112.92 102.256C112.088 102.341 111.341 102.384 110.68 102.384C109.848 102.405 108.984 102.405 108.088 102.384C107.213 102.384 106.36 102.299 105.528 102.128C105.165 102.021 104.899 101.84 104.728 101.584C104.579 101.307 104.472 100.997 104.408 100.656C104.323 100.464 104.28 100.272 104.28 100.08V81.904C104.28 81.3067 104.397 80.848 104.632 80.528C104.888 80.1867 105.219 79.9413 105.624 79.792C106.029 79.6213 106.488 79.5253 107 79.504C107.512 79.4613 108.045 79.44 108.6 79.44C109.027 79.44 109.453 79.44 109.88 79.44C110.328 79.4187 110.776 79.4187 111.224 79.44C111.928 79.4613 112.653 79.5253 113.4 79.632C114.168 79.7173 114.893 79.888 115.576 80.144C115.896 80.2507 116.237 80.4 116.6 80.592C116.963 80.7627 117.251 80.976 117.464 81.232C118.147 81.8507 118.648 82.576 118.968 83.408C119.309 84.2187 119.459 85.0507 119.416 85.904C119.373 86.736 119.139 87.536 118.712 88.304C118.307 89.072 117.699 89.7013 116.888 90.192ZM111.288 98.672C111.949 98.6293 112.621 98.5547 113.304 98.448C113.987 98.3413 114.456 98.1387 114.712 97.84C114.989 97.4987 115.181 97.104 115.288 96.656C115.416 96.1867 115.448 95.7173 115.384 95.248C115.341 94.7573 115.203 94.2987 114.968 93.872C114.755 93.424 114.467 93.072 114.104 92.816C113.613 92.432 113.048 92.1867 112.408 92.08C111.768 91.952 111.139 91.888 110.52 91.888C110.221 91.888 109.944 91.8987 109.688 91.92C109.453 91.92 109.24 91.952 109.048 92.016C108.877 92.0587 108.749 92.1547 108.664 92.304C108.579 92.4533 108.536 92.6773 108.536 92.976C108.579 93.5307 108.579 94.0853 108.536 94.64C108.493 95.1947 108.472 95.728 108.472 96.24C108.472 96.5387 108.461 96.8693 108.44 97.232C108.44 97.5733 108.557 97.8613 108.792 98.096C109.027 98.3307 109.368 98.4907 109.816 98.576C110.264 98.6613 110.755 98.6933 111.288 98.672ZM111.928 83.312C111.267 83.2907 110.712 83.28 110.264 83.28C109.837 83.2587 109.496 83.2907 109.24 83.376C109.005 83.44 108.835 83.6 108.728 83.856C108.643 84.0907 108.611 84.4533 108.632 84.944C108.632 85.3493 108.621 85.7547 108.6 86.16C108.6 86.544 108.6 86.928 108.6 87.312C108.6 87.7387 108.739 88.0587 109.016 88.272C109.293 88.464 109.635 88.5813 110.04 88.624C110.467 88.6667 110.904 88.6667 111.352 88.624C111.821 88.5813 112.227 88.528 112.568 88.464C113.336 88.336 113.923 88.08 114.328 87.696C114.755 87.2907 115 86.704 115.064 85.936C115.149 84.976 114.893 84.3147 114.296 83.952C113.72 83.568 112.931 83.3547 111.928 83.312ZM139.565 81.104C139.693 82.128 139.767 83.3227 139.789 84.688C139.81 86.032 139.789 87.3973 139.725 88.784C139.682 90.1493 139.586 91.4507 139.437 92.688C139.287 93.904 139.106 94.8853 138.892 95.632C138.743 96.08 138.562 96.5493 138.349 97.04C138.157 97.5093 137.943 97.936 137.708 98.32C137.367 98.896 136.951 99.408 136.461 99.856C135.97 100.283 135.426 100.656 134.829 100.976C134.253 101.275 133.634 101.509 132.973 101.68C132.333 101.851 131.693 101.947 131.053 101.968C129.922 102.011 128.845 101.851 127.821 101.488C126.818 101.104 125.89 100.507 125.036 99.696C124.397 99.0773 123.885 98.416 123.501 97.712C123.117 97.008 122.818 96.272 122.605 95.504C122.391 94.7147 122.253 93.904 122.189 93.072C122.146 92.24 122.125 91.3867 122.125 90.512C122.125 90.1067 122.114 89.6053 122.093 89.008C122.093 88.3893 122.093 87.76 122.093 87.12C122.093 86.4587 122.093 85.8187 122.093 85.2C122.093 84.5813 122.103 84.0587 122.125 83.632C122.125 83.3547 122.125 83.056 122.125 82.736C122.125 82.3947 122.135 82.064 122.157 81.744C122.199 81.4027 122.263 81.0827 122.349 80.784C122.434 80.464 122.562 80.176 122.733 79.92C122.925 79.6427 123.191 79.44 123.533 79.312C123.874 79.184 124.226 79.12 124.589 79.12C124.973 79.12 125.335 79.1947 125.677 79.344C126.018 79.4933 126.295 79.7067 126.509 79.984C126.615 80.1547 126.69 80.3253 126.733 80.496C126.775 80.6667 126.807 80.8587 126.829 81.072C126.871 81.776 126.893 82.576 126.893 83.472C126.914 84.368 126.914 85.2427 126.893 86.096C126.893 86.928 126.882 87.696 126.861 88.4C126.839 89.104 126.829 89.6267 126.829 89.968C126.829 91.248 126.893 92.4107 127.021 93.456C127.149 94.48 127.447 95.3333 127.917 96.016C128.343 96.6347 128.845 97.0293 129.421 97.2C129.997 97.3707 130.573 97.424 131.149 97.36C131.682 97.296 132.215 97.104 132.749 96.784C133.303 96.4427 133.741 95.952 134.061 95.312C134.189 95.0773 134.295 94.8107 134.381 94.512C134.466 94.2133 134.53 93.936 134.573 93.68C134.658 92.8693 134.733 91.9307 134.797 90.864C134.861 89.776 134.914 88.6667 134.957 87.536C134.999 86.4053 135.021 85.296 135.021 84.208C135.021 83.12 135.01 82.1387 134.989 81.264C135.031 80.88 135.149 80.528 135.341 80.208C135.511 79.9307 135.757 79.6853 136.077 79.472C136.397 79.2587 136.834 79.152 137.389 79.152C137.837 79.1733 138.199 79.2907 138.477 79.504C138.754 79.696 138.978 79.9093 139.149 80.144C139.341 80.4213 139.479 80.7413 139.565 81.104ZM143.366 98.608L143.398 96.08L143.43 91.376C143.451 90.6933 143.462 89.9893 143.462 89.264C143.462 88.5387 143.462 87.792 143.462 87.024C143.462 86.256 143.462 85.5733 143.462 84.976C143.462 84.3787 143.483 83.7067 143.526 82.96V82.832C143.547 82.6187 143.558 82.4053 143.558 82.192C143.579 81.9573 143.59 81.7227 143.59 81.488C143.611 81.104 143.728 80.688 143.942 80.24C144.091 79.9413 144.315 79.6853 144.614 79.472C144.955 79.3013 145.286 79.216 145.606 79.216C145.776 79.216 145.926 79.2267 146.054 79.248C146.203 79.248 146.342 79.2587 146.47 79.28C146.747 79.3227 146.992 79.4507 147.206 79.664C147.334 79.7707 147.451 79.9413 147.558 80.176C147.6 80.304 147.632 80.432 147.654 80.56C147.696 80.6667 147.728 80.784 147.75 80.912C147.771 81.0613 147.782 81.2 147.782 81.328C147.803 81.456 147.814 81.584 147.814 81.712C147.814 81.8613 147.803 82 147.782 82.128C147.782 82.2347 147.782 82.352 147.782 82.48V83.024L147.59 99.632V99.952C147.59 100.016 147.579 100.101 147.558 100.208C147.558 100.293 147.547 100.4 147.526 100.528C147.483 100.635 147.44 100.752 147.398 100.88C147.376 100.987 147.344 101.104 147.302 101.232C147.238 101.339 147.163 101.445 147.078 101.552C147.014 101.637 146.928 101.723 146.822 101.808C146.651 101.979 146.374 102.096 145.99 102.16C145.414 102.288 144.87 102.235 144.358 102C144.102 101.829 143.92 101.616 143.814 101.36C143.75 101.296 143.718 101.232 143.718 101.168C143.696 101.125 143.675 101.093 143.654 101.072C143.632 101.051 143.611 101.019 143.59 100.976C143.547 100.869 143.515 100.763 143.494 100.656C143.472 100.528 143.462 100.4 143.462 100.272C143.44 100.165 143.419 100.059 143.398 99.952C143.398 99.8453 143.387 99.7387 143.366 99.632C143.344 99.4613 143.344 99.28 143.366 99.088V98.608ZM166.127 99.568C166.169 99.6747 166.191 99.8347 166.191 100.048C166.191 100.24 166.191 100.4 166.191 100.528C166.191 100.699 166.159 100.859 166.095 101.008C166.031 101.157 165.945 101.296 165.839 101.424C165.647 101.68 165.369 101.872 165.007 102C164.495 102.171 164.015 102.256 163.567 102.256C163.332 102.277 163.087 102.288 162.831 102.288C162.575 102.288 162.319 102.309 162.063 102.352H161.935C160.292 102.373 158.596 102.373 156.847 102.352C156.42 102.331 155.94 102.331 155.407 102.352C154.873 102.395 154.351 102.384 153.839 102.32C153.327 102.277 152.857 102.16 152.431 101.968C152.025 101.755 151.737 101.424 151.567 100.976C151.524 100.869 151.492 100.773 151.471 100.688C151.449 100.581 151.439 100.475 151.439 100.368C151.353 99.6427 151.321 98.928 151.343 98.224C151.364 97.52 151.375 96.8267 151.375 96.144L151.439 91.504V87.216C151.439 86.448 151.439 85.7653 151.439 85.168C151.46 84.5707 151.481 83.9093 151.503 83.184V83.024C151.524 82.8107 151.535 82.5973 151.535 82.384C151.556 82.1707 151.567 81.9573 151.567 81.744C151.609 81.2533 151.727 80.8373 151.919 80.496C152.047 80.176 152.271 79.92 152.591 79.728C152.868 79.536 153.199 79.44 153.583 79.44C153.732 79.44 153.871 79.4507 153.999 79.472C154.148 79.472 154.287 79.4827 154.415 79.504C154.543 79.5253 154.66 79.568 154.766 79.632C154.895 79.696 155.023 79.7813 155.151 79.888C155.279 80.0373 155.396 80.2187 155.503 80.432C155.588 80.6667 155.641 80.9013 155.663 81.136C155.684 81.2853 155.705 81.424 155.727 81.552C155.748 81.68 155.759 81.808 155.759 81.936C155.716 82.064 155.695 82.192 155.695 82.32C155.695 82.448 155.695 82.5653 155.695 82.672V83.248L155.567 98.32L161.903 98.384H163.407C163.535 98.384 163.673 98.3947 163.823 98.416C163.972 98.416 164.121 98.4267 164.271 98.448C164.441 98.4693 164.591 98.4907 164.719 98.512C164.847 98.5333 164.975 98.5653 165.103 98.608C165.337 98.672 165.529 98.7787 165.679 98.928C165.913 99.1413 166.063 99.3547 166.127 99.568ZM185.581 89.136C185.623 89.84 185.613 90.5653 185.549 91.312C185.506 92.0587 185.431 92.784 185.325 93.488C185.111 94.704 184.717 95.888 184.141 97.04C183.565 98.192 182.722 99.1733 181.613 99.984C180.461 100.837 179.149 101.424 177.677 101.744C176.205 102.043 174.743 102.224 173.293 102.288C172.802 102.331 172.301 102.341 171.789 102.32C171.298 102.32 170.818 102.267 170.349 102.16C169.965 102.096 169.677 101.979 169.485 101.808C169.378 101.744 169.293 101.659 169.229 101.552C169.165 101.445 169.111 101.339 169.069 101.232C169.005 101.125 168.951 101.019 168.909 100.912C168.887 100.784 168.855 100.656 168.813 100.528C168.791 100.421 168.77 100.325 168.749 100.24C168.749 100.133 168.749 100.037 168.749 99.952V81.68C168.749 81.5307 168.749 81.392 168.749 81.264C168.749 81.136 168.77 81.008 168.813 80.88C168.855 80.5813 168.919 80.336 169.005 80.144C169.09 79.888 169.207 79.7067 169.357 79.6C169.485 79.4933 169.613 79.4187 169.741 79.376C169.869 79.312 169.986 79.2587 170.093 79.216C170.221 79.1733 170.349 79.1733 170.477 79.216C170.626 79.2373 170.786 79.2053 170.957 79.12L176.301 79.248C177.709 79.2907 178.967 79.6213 180.077 80.24C181.186 80.8373 182.135 81.6053 182.925 82.544C183.714 83.4827 184.333 84.5387 184.781 85.712C185.229 86.864 185.495 88.0053 185.581 89.136ZM179.629 95.216C180.034 94.576 180.333 93.84 180.525 93.008C180.717 92.176 180.802 91.3333 180.781 90.48C180.759 89.6053 180.642 88.7627 180.429 87.952C180.215 87.12 179.917 86.384 179.533 85.744C179.234 85.2747 178.85 84.8907 178.381 84.592C177.911 84.2933 177.389 84.0693 176.813 83.92C176.237 83.7493 175.618 83.632 174.957 83.568C174.317 83.504 173.687 83.472 173.069 83.472C173.09 84.0907 173.101 84.688 173.101 85.264C173.101 85.84 173.101 86.448 173.101 87.088C173.079 87.856 173.069 88.6027 173.069 89.328C173.069 90.0533 173.069 90.7573 173.069 91.44V97.968C173.73 97.9467 174.359 97.9147 174.957 97.872C175.575 97.808 176.162 97.68 176.717 97.488C177.293 97.296 177.815 97.0293 178.285 96.688C178.775 96.3253 179.223 95.8347 179.629 95.216ZM192.602 83.184L192.538 88.208H193.818C194.692 88.1867 195.471 88.176 196.154 88.176C196.836 88.176 197.594 88.1867 198.426 88.208H198.586C198.842 88.208 199.087 88.2187 199.322 88.24C199.578 88.24 199.823 88.24 200.058 88.24C200.314 88.2613 200.559 88.304 200.794 88.368C201.028 88.4107 201.263 88.464 201.498 88.528C201.86 88.656 202.159 88.848 202.394 89.104C202.607 89.3813 202.714 89.6907 202.714 90.032C202.714 90.1387 202.714 90.2667 202.714 90.416C202.714 90.544 202.692 90.6613 202.65 90.768C202.607 91.0027 202.468 91.216 202.234 91.408C202.127 91.5573 201.924 91.664 201.626 91.728C201.348 91.8133 201.071 91.8667 200.794 91.888C200.495 91.952 200.196 91.984 199.898 91.984H198.394L192.474 92.016L192.41 98.288L198.778 98.352H200.282C200.452 98.352 200.612 98.352 200.762 98.352C200.911 98.352 201.05 98.3627 201.178 98.384C201.348 98.4267 201.498 98.4587 201.626 98.48C201.775 98.48 201.914 98.5013 202.042 98.544C202.298 98.6293 202.511 98.7467 202.682 98.896C202.895 99.1093 203.034 99.3333 203.097 99.568C203.119 99.6747 203.13 99.792 203.13 99.92C203.151 100.027 203.151 100.144 203.13 100.272C203.13 100.613 203.023 100.923 202.81 101.2C202.554 101.499 202.255 101.691 201.914 101.776C201.466 101.968 200.975 102.064 200.442 102.064C200.207 102.085 199.962 102.096 199.706 102.096C199.45 102.096 199.204 102.107 198.97 102.128H198.778C197.114 102.171 195.386 102.171 193.594 102.128C193.167 102.128 192.826 102.117 192.57 102.096C192.314 102.096 192.079 102.096 191.866 102.096C191.674 102.096 191.471 102.096 191.258 102.096C191.044 102.096 190.767 102.096 190.426 102.096C189.935 102.139 189.53 102.053 189.21 101.84C188.975 101.691 188.794 101.488 188.666 101.232C188.602 101.168 188.57 101.104 188.57 101.04C188.548 100.997 188.527 100.965 188.506 100.944C188.484 100.923 188.463 100.891 188.442 100.848C188.399 100.741 188.367 100.635 188.346 100.528C188.324 100.4 188.314 100.283 188.314 100.176C188.292 100.069 188.271 99.9627 188.25 99.856C188.25 99.7493 188.239 99.6427 188.218 99.536V99.024C188.218 98.9387 188.218 98.8533 188.218 98.768C188.239 98.6827 188.25 98.5973 188.25 98.512V96.016L188.314 91.408V87.152C188.314 86.384 188.314 85.7013 188.314 85.104C188.335 84.5067 188.356 83.856 188.378 83.152V82.992C188.399 82.7573 188.41 82.544 188.41 82.352C188.431 82.1387 188.442 81.9253 188.442 81.712C188.463 81.2853 188.58 80.8693 188.794 80.464C188.879 80.2933 188.964 80.144 189.049 80.016C189.156 79.888 189.295 79.7813 189.466 79.696C189.786 79.504 190.116 79.408 190.458 79.408C190.628 79.408 190.756 79.4187 190.842 79.44V79.408C191.226 79.408 191.535 79.408 191.77 79.408C192.004 79.408 192.228 79.408 192.442 79.408C192.676 79.408 192.922 79.408 193.178 79.408C193.434 79.3867 193.786 79.376 194.234 79.376C195.087 79.3547 195.898 79.344 196.666 79.344C197.434 79.344 198.223 79.3547 199.034 79.376H199.162C199.396 79.3973 199.642 79.408 199.898 79.408C200.154 79.408 200.399 79.4187 200.634 79.44C200.868 79.44 201.103 79.472 201.338 79.536C201.572 79.5787 201.807 79.6427 202.042 79.728C202.404 79.8347 202.703 80.016 202.938 80.272C203.13 80.5707 203.226 80.8693 203.226 81.168C203.226 81.296 203.226 81.424 203.226 81.552C203.226 81.6587 203.204 81.7653 203.162 81.872C203.14 82.0853 203.012 82.3093 202.778 82.544C202.692 82.5867 202.596 82.64 202.49 82.704C202.404 82.768 202.298 82.8213 202.17 82.864C202.042 82.9067 201.903 82.9387 201.754 82.96C201.626 82.96 201.498 82.9707 201.37 82.992C201.199 83.0347 201.039 83.056 200.89 83.056C200.762 83.056 200.612 83.056 200.442 83.056H199.002L192.602 83.088V83.184ZM222.292 100.592C222.313 100.805 222.292 101.008 222.228 101.2C222.185 101.328 222.121 101.435 222.036 101.52C221.972 101.605 221.887 101.691 221.78 101.776C221.588 101.904 221.353 102.021 221.076 102.128C220.905 102.171 220.735 102.203 220.564 102.224C220.415 102.267 220.255 102.267 220.084 102.224C219.743 102.203 219.444 102.075 219.188 101.84C218.825 101.541 218.527 101.211 218.292 100.848C218.185 100.677 218.068 100.485 217.94 100.272C217.812 100.059 217.695 99.8347 217.588 99.6L214.036 92.848C213.865 92.848 213.695 92.8587 213.524 92.88C213.353 92.88 213.183 92.8907 213.012 92.912C212.564 92.9547 212.137 92.9653 211.732 92.944C211.348 92.9227 210.943 92.9227 210.516 92.944H209.908V98.736C209.908 98.9067 209.897 99.0667 209.876 99.216C209.876 99.3653 209.876 99.5253 209.876 99.696C209.876 99.8027 209.865 99.9413 209.844 100.112C209.844 100.283 209.833 100.443 209.812 100.592C209.769 100.827 209.673 101.072 209.524 101.328C209.375 101.563 209.172 101.765 208.916 101.936C208.468 102.213 207.924 102.288 207.284 102.16C207.007 102.096 206.74 101.989 206.484 101.84C206.399 101.776 206.324 101.701 206.26 101.616C206.196 101.509 206.143 101.403 206.1 101.296C206.057 101.189 206.015 101.083 205.972 100.976C205.951 100.848 205.919 100.731 205.876 100.624C205.812 100.411 205.78 100.208 205.78 100.016V81.84C205.78 81.712 205.78 81.584 205.78 81.456C205.801 81.3067 205.823 81.1787 205.844 81.072C205.865 80.8373 205.94 80.6027 206.068 80.368C206.132 80.112 206.239 79.9307 206.388 79.824C206.516 79.696 206.708 79.5893 206.964 79.504C207.241 79.3973 207.636 79.3547 208.148 79.376C209.108 79.3973 210.057 79.408 210.996 79.408C211.935 79.408 212.873 79.4293 213.812 79.472C214.431 79.5147 215.081 79.5893 215.764 79.696C216.468 79.7813 217.119 79.9413 217.716 80.176C218.1 80.3253 218.452 80.4747 218.772 80.624C219.177 80.8587 219.497 81.0827 219.732 81.296C220.479 81.9787 221.044 82.8 221.428 83.76C221.812 84.72 222.004 85.6907 222.004 86.672C222.004 87.824 221.727 88.88 221.172 89.84C220.639 90.8 219.775 91.5147 218.58 91.984C218.537 92.0267 218.473 92.0587 218.388 92.08C218.324 92.08 218.271 92.0907 218.228 92.112L221.172 98.032L221.46 98.544C221.503 98.6293 221.556 98.7253 221.62 98.832C221.684 98.9387 221.737 99.0453 221.78 99.152C221.844 99.2587 221.897 99.376 221.94 99.504C222.004 99.632 222.068 99.7493 222.132 99.856C222.196 100.155 222.249 100.4 222.292 100.592ZM214.292 89.2C214.676 89.2 215.039 89.136 215.38 89.008C215.743 88.8587 216.063 88.6667 216.34 88.432C216.639 88.1973 216.884 87.9307 217.076 87.632C217.268 87.312 217.375 86.9707 217.396 86.608C217.481 85.5413 217.204 84.752 216.564 84.24C215.924 83.7067 215.081 83.4187 214.036 83.376C213.417 83.3333 212.735 83.312 211.988 83.312C211.263 83.312 210.569 83.312 209.908 83.312C209.929 84.1867 209.929 85.0827 209.908 86C209.908 86.896 209.908 87.9627 209.908 89.2H214.292Z" fill="white"/>
<path opacity="0.2" d="M55.25 45.9004H78.6475C79.3198 45.9001 79.9851 46.0391 80.6006 46.3096C81.2162 46.5801 81.7691 46.9762 82.2236 47.4717L97.3232 63.9287C98.1442 64.8231 98.5993 65.993 98.5996 67.207V103.25C98.5996 104.536 98.0892 105.77 97.1797 106.68C96.2701 107.589 95.0363 108.1 93.75 108.1H55.25C53.9637 108.1 52.7299 107.589 51.8203 106.68C50.9108 105.77 50.4004 104.536 50.4004 103.25V50.75C50.4004 49.4637 50.9108 48.2299 51.8203 47.3203C52.7299 46.4108 53.9637 45.9004 55.25 45.9004Z" fill="white" stroke="white" stroke-width="0.8"/>
<path d="M55.25 87.9004H79.75C80.108 87.9004 80.4519 88.0417 80.7051 88.2949C80.9583 88.5481 81.0996 88.892 81.0996 89.25C81.0996 89.608 80.9583 89.9519 80.7051 90.2051C80.4519 90.4583 80.108 90.5996 79.75 90.5996H55.25C54.892 90.5996 54.5481 90.4583 54.2949 90.2051C54.0417 89.9519 53.9004 89.608 53.9004 89.25C53.9004 88.892 54.0417 88.5481 54.2949 88.2949C54.5481 88.0417 54.892 87.9004 55.25 87.9004ZM55.25 79.1504H79.75C80.108 79.1504 80.4519 79.2917 80.7051 79.5449C80.9583 79.7981 81.0996 80.142 81.0996 80.5C81.0996 80.858 80.9583 81.2019 80.7051 81.4551C80.4519 81.7083 80.108 81.8496 79.75 81.8496H55.25C54.892 81.8496 54.5481 81.7083 54.2949 81.4551C54.0417 81.2019 53.9004 80.858 53.9004 80.5C53.9004 80.142 54.0417 79.7981 54.2949 79.5449C54.5481 79.2917 54.892 79.1504 55.25 79.1504Z" fill="white" stroke="white" stroke-width="0.8"/>
<path d="M48.25 42.4004H71.6475C72.3198 42.4001 72.9851 42.5391 73.6006 42.8096C74.2162 43.0801 74.7691 43.4762 75.2236 43.9717L90.3232 60.4287C91.1442 61.3231 91.5993 62.493 91.5996 63.707V99.75C91.5996 101.036 91.0892 102.27 90.1797 103.18C89.2701 104.089 88.0363 104.6 86.75 104.6H48.25C46.9637 104.6 45.7299 104.089 44.8203 103.18C43.9108 102.27 43.4004 101.036 43.4004 99.75V47.25C43.4004 45.9637 43.9108 44.7299 44.8203 43.8203C45.7299 42.9108 46.9637 42.4004 48.25 42.4004ZM48.25 45.0996C47.6798 45.0996 47.1327 45.3263 46.7295 45.7295C46.3263 46.1327 46.0996 46.6798 46.0996 47.25V99.75C46.0996 100.32 46.3263 100.867 46.7295 101.271C47.1327 101.674 47.6798 101.9 48.25 101.9H86.75C87.3202 101.9 87.8673 101.674 88.2705 101.271C88.6737 100.867 88.9004 100.32 88.9004 99.75V63.707C88.8999 63.1686 88.6966 62.6492 88.332 62.2529L73.2334 45.7969C73.0317 45.577 72.7868 45.4012 72.5137 45.2812C72.2406 45.1614 71.9456 45.0993 71.6475 45.0996H48.25Z" fill="white" stroke="white" stroke-width="0.8"/>
<path d="M72.75 45.85V62.3H89.2" fill="white"/>
<path d="M72.75 45.85V62.3H89.2" stroke="white" stroke-width="0.8" stroke-linecap="round" stroke-linejoin="round"/>
<path d="M60.9816 52.8996C61.4277 52.886 61.8721 52.962 62.2883 53.1233C62.7045 53.2846 63.084 53.5283 63.4045 53.8391C63.7249 54.1499 63.9805 54.5217 64.1545 54.9328C64.3285 55.344 64.4181 55.7862 64.4182 56.2326C64.4182 56.6791 64.3285 57.1213 64.1545 57.5324C63.9805 57.9436 63.725 58.3153 63.4045 58.6262C63.084 58.937 62.7046 59.1807 62.2883 59.342C61.8721 59.5033 61.4278 59.5792 60.9816 59.5656C60.1153 59.5391 59.293 59.1761 58.6896 58.5539C58.0864 57.9318 57.7492 57.0992 57.7492 56.2326C57.7492 55.366 58.0863 54.5335 58.6896 53.9113C59.293 53.2892 60.1153 52.9261 60.9816 52.8996Z" fill="white" stroke="white" stroke-width="0.8"/>
<path d="M60.9658 61.6119C64.9089 61.612 68.0312 64.3453 68.0312 68.0543V69.9234C68.0302 70.1464 67.9409 70.3604 67.7832 70.5181C67.6252 70.6761 67.4109 70.7646 67.1875 70.7652H54.7461C54.5221 70.7652 54.307 70.6763 54.1484 70.5181C54.0099 70.3798 53.924 70.1985 53.9043 70.0054L53.9004 69.9215V68.0543C53.9004 64.3418 57.0225 61.6119 60.9658 61.6119Z" fill="white" stroke="white" stroke-width="0.8"/>
</svg>
